<svg xmlns="http://www.w3.org/2000/svg" viewBox="0 0 1600 1000" preserveAspectRatio="xMidYMid slice">
<defs><linearGradient id="bg" x1="0" y1="0" x2="0" y2="1"><stop offset="0" stop-color="#eef2f7"/><stop offset="1" stop-color="#d6dfe9"/></linearGradient><radialGradient id="lightfall" cx="0.7" cy="0.15" r="0.7"><stop offset="0" stop-color="#ffffff" stop-opacity="0.95"/><stop offset="1" stop-color="#d6dfe9" stop-opacity="0"/></radialGradient><filter id="grain"><feTurbulence type="fractalNoise" baseFrequency="0.8" numOctaves="2" stitchTiles="stitch"/><feColorMatrix type="saturate" values="0"/><feComponentTransfer><feFuncA type="linear" slope="0.06"/></feComponentTransfer><feComposite operator="over" in2="SourceGraphic"/></filter></defs>
<rect width="1600" height="1000" fill="url(#bg)"/><rect width="1600" height="1000" fill="url(#lightfall)"/><rect x="950" y="120" width="520" height="760" rx="10" fill="#c9d5e2" opacity="0.7"/><rect x="980" y="150" width="460" height="700" rx="6" fill="#e4ebf3" opacity="0.9"/><rect x="1180" y="200" width="14" height="180" rx="7" fill="#8b97a8"/><circle cx="1187" cy="400" r="46" fill="none" stroke="#8b97a8" stroke-width="10"/><line x1="1150" y1="460" x2="1144" y2="560" stroke="#38bdf8" stroke-width="4" stroke-opacity="0.35" stroke-linecap="round"/><line x1="1162" y1="460" x2="1156" y2="560" stroke="#38bdf8" stroke-width="4" stroke-opacity="0.35" stroke-linecap="round"/><line x1="1174" y1="460" x2="1168" y2="560" stroke="#38bdf8" stroke-width="4" stroke-opacity="0.35" stroke-linecap="round"/><line x1="1186" y1="460" x2="1180" y2="560" stroke="#38bdf8" stroke-width="4" stroke-opacity="0.35" stroke-linecap="round"/><line x1="1198" y1="460" x2="1192" y2="560" stroke="#38bdf8" stroke-width="4" stroke-opacity="0.35" stroke-linecap="round"/><line x1="1210" y1="460" x2="1204" y2="560" stroke="#38bdf8" stroke-width="4" stroke-opacity="0.35" stroke-linecap="round"/><line x1="1222" y1="460" x2="1216" y2="560" stroke="#38bdf8" stroke-width="4" stroke-opacity="0.35" stroke-linecap="round"/><ellipse cx="420" cy="640" rx="220" ry="42" fill="#ffffff"/><rect x="200" y="640" width="440" height="26" rx="13" fill="#c2cedc"/><rect width="1600" height="1000" filter="url(#grain)" opacity="0.5"/>
</svg>