<svg xmlns="http://www.w3.org/2000/svg" viewBox="0 0 1600 1000" preserveAspectRatio="xMidYMid slice">
<defs><linearGradient id="bg" x1="0" y1="0" x2="0" y2="1"><stop offset="0" stop-color="#0a1322"/><stop offset="1" stop-color="#0b0d10"/></linearGradient><filter id="grain"><feTurbulence type="fractalNoise" baseFrequency="0.8" numOctaves="2" stitchTiles="stitch"/><feColorMatrix type="saturate" values="0"/><feComponentTransfer><feFuncA type="linear" slope="0.06"/></feComponentTransfer><feComposite operator="over" in2="SourceGraphic"/></filter></defs>
<rect width="1600" height="1000" fill="url(#bg)"/><rect x="0" y="620" width="1600" height="180" fill="#12161d" opacity="0.85"/><rect x="0" y="616" width="1600" height="6" fill="#38bdf8" opacity="0.2"/><path d="M0 380 C 400 350, 800 420, 1600 370" stroke="#38bdf8" stroke-width="2" fill="none" stroke-opacity="0.22"/><path d="M0 450 C 400 420, 800 490, 1600 440" stroke="#38bdf8" stroke-width="3" fill="none" stroke-opacity="0.195"/><path d="M0 520 C 400 490, 800 560, 1600 510" stroke="#38bdf8" stroke-width="4" fill="none" stroke-opacity="0.16999999999999998"/><path d="M0 590 C 400 560, 800 630, 1600 580" stroke="#38bdf8" stroke-width="2" fill="none" stroke-opacity="0.145"/><path d="M0 660 C 400 630, 800 700, 1600 650" stroke="#38bdf8" stroke-width="3" fill="none" stroke-opacity="0.12"/><path d="M0 730 C 400 700, 800 770, 1600 720" stroke="#38bdf8" stroke-width="4" fill="none" stroke-opacity="0.095"/><rect width="1600" height="1000" filter="url(#grain)" opacity="0.5"/>
</svg>