<svg xmlns="http://www.w3.org/2000/svg" viewBox="0 0 1600 1000" preserveAspectRatio="xMidYMid slice">
<defs><linearGradient id="bg" x1="0" y1="0" x2="0" y2="1"><stop offset="0" stop-color="#0b0d10"/><stop offset="1" stop-color="#171008"/></linearGradient><radialGradient id="glow" cx="0.72" cy="0.3" r="0.7"><stop offset="0" stop-color="#f59e0b" stop-opacity="0.22"/><stop offset="0.6" stop-color="#f59e0b" stop-opacity="0.05"/><stop offset="1" stop-color="#0b0d10" stop-opacity="0"/></radialGradient><filter id="grain"><feTurbulence type="fractalNoise" baseFrequency="0.8" numOctaves="2" stitchTiles="stitch"/><feColorMatrix type="saturate" values="0"/><feComponentTransfer><feFuncA type="linear" slope="0.06"/></feComponentTransfer><feComposite operator="over" in2="SourceGraphic"/></filter></defs>
<rect width="1600" height="1000" fill="url(#bg)"/><rect width="1600" height="1000" fill="url(#glow)"/><rect x="-80" y="0" width="36" height="1000" fill="#f59e0b" opacity="0.035" transform="skewX(-18)"/><rect x="180" y="0" width="36" height="1000" fill="#f59e0b" opacity="0.035" transform="skewX(-18)"/><rect x="440" y="0" width="36" height="1000" fill="#f59e0b" opacity="0.035" transform="skewX(-18)"/><rect x="700" y="0" width="36" height="1000" fill="#f59e0b" opacity="0.035" transform="skewX(-18)"/><rect x="960" y="0" width="36" height="1000" fill="#f59e0b" opacity="0.035" transform="skewX(-18)"/><rect x="1220" y="0" width="36" height="1000" fill="#f59e0b" opacity="0.035" transform="skewX(-18)"/><rect x="1480" y="0" width="36" height="1000" fill="#f59e0b" opacity="0.035" transform="skewX(-18)"/><rect x="1740" y="0" width="36" height="1000" fill="#f59e0b" opacity="0.035" transform="skewX(-18)"/><path d="M0 700 Q 500 660 900 720 T 1600 700" stroke="#3a3025" stroke-width="70" fill="none" stroke-opacity="0.6"/><path d="M0 700 Q 500 660 900 720 T 1600 700" stroke="#f59e0b" stroke-width="4" fill="none" stroke-opacity="0.25"/><rect width="1600" height="1000" filter="url(#grain)" opacity="0.5"/>
</svg>