<svg xmlns="http://www.w3.org/2000/svg" viewBox="0 0 1600 1000" preserveAspectRatio="xMidYMid slice">
<defs><linearGradient id="bg" x1="0" y1="0" x2="0" y2="1"><stop offset="0" stop-color="#12161d"/><stop offset="1" stop-color="#0e1a2e"/></linearGradient><filter id="grain"><feTurbulence type="fractalNoise" baseFrequency="0.8" numOctaves="2" stitchTiles="stitch"/><feColorMatrix type="saturate" values="0"/><feComponentTransfer><feFuncA type="linear" slope="0.06"/></feComponentTransfer><feComposite operator="over" in2="SourceGraphic"/></filter></defs>
<rect width="1600" height="1000" fill="url(#bg)"/><rect x="0" y="180" width="1600" height="90" rx="45" fill="#2a3442"/><rect x="0" y="196" width="1600" height="14" rx="7" fill="#4b5665" opacity="0.6"/><rect x="720" y="150" width="70" height="150" rx="12" fill="#39434f"/><path d="M745 310 q 6 40 0 70" stroke="#38bdf8" stroke-width="6" stroke-linecap="round" fill="none" stroke-opacity="0.5"/><path d="M753 370 q 6 40 0 70" stroke="#38bdf8" stroke-width="6" stroke-linecap="round" fill="none" stroke-opacity="0.43"/><path d="M761 430 q 6 40 0 70" stroke="#38bdf8" stroke-width="6" stroke-linecap="round" fill="none" stroke-opacity="0.36"/><path d="M769 490 q 6 40 0 70" stroke="#38bdf8" stroke-width="6" stroke-linecap="round" fill="none" stroke-opacity="0.29"/><path d="M777 550 q 6 40 0 70" stroke="#38bdf8" stroke-width="6" stroke-linecap="round" fill="none" stroke-opacity="0.21999999999999997"/><ellipse cx="765" cy="840" rx="240" ry="34" fill="#38bdf8" opacity="0.14"/><ellipse cx="765" cy="840" rx="130" ry="18" fill="#38bdf8" opacity="0.16"/><rect width="1600" height="1000" filter="url(#grain)" opacity="0.5"/>
</svg>