<svg xmlns="http://www.w3.org/2000/svg" viewBox="0 0 1600 1000" preserveAspectRatio="xMidYMid slice">
<defs><linearGradient id="bg" x1="0" y1="0" x2="0" y2="1"><stop offset="0" stop-color="#12161d"/><stop offset="1" stop-color="#0b0d10"/></linearGradient><radialGradient id="murk" cx="0.5" cy="0.55" r="0.7"><stop offset="0" stop-color="#4b5665" stop-opacity="0.25"/><stop offset="0.7" stop-color="#12161d" stop-opacity="0.4"/><stop offset="1" stop-color="#0b0d10" stop-opacity="0"/></radialGradient><filter id="grain"><feTurbulence type="fractalNoise" baseFrequency="0.8" numOctaves="2" stitchTiles="stitch"/><feColorMatrix type="saturate" values="0"/><feComponentTransfer><feFuncA type="linear" slope="0.06"/></feComponentTransfer><feComposite operator="over" in2="SourceGraphic"/></filter></defs>
<rect width="1600" height="1000" fill="url(#bg)"/><rect width="1600" height="1000" fill="url(#murk)"/><path d="M0 520 H 620" stroke="#38bdf8" stroke-width="5" stroke-opacity="0.3" stroke-dasharray="30 26"/><path d="M700 470 q 60 -90 170 -60 q 110 20 130 110 q 20 90 -70 130 q -100 40 -180 -10 q -90 -60 -50 -170 Z" fill="#171c22" stroke="#2a3442" stroke-width="6"/><circle cx="760" cy="640" r="18" fill="#232b36" opacity="0.8"/><circle cx="805" cy="658" r="15" fill="#232b36" opacity="0.8"/><circle cx="850" cy="676" r="12" fill="#232b36" opacity="0.8"/><circle cx="895" cy="640" r="9" fill="#232b36" opacity="0.8"/><circle cx="940" cy="658" r="18" fill="#232b36" opacity="0.8"/><circle cx="985" cy="676" r="15" fill="#232b36" opacity="0.8"/><circle cx="1030" cy="640" r="12" fill="#232b36" opacity="0.8"/><circle cx="1075" cy="658" r="9" fill="#232b36" opacity="0.8"/><rect width="1600" height="1000" filter="url(#grain)" opacity="0.5"/>
</svg>