<svg xmlns="http://www.w3.org/2000/svg" viewBox="0 0 1600 1000" preserveAspectRatio="xMidYMid slice">
<defs><linearGradient id="bg" x1="0" y1="0" x2="0" y2="1"><stop offset="0" stop-color="#1a212b"/><stop offset="1" stop-color="#0e1a2e"/></linearGradient><radialGradient id="shine" cx="0.4" cy="0.35" r="0.7"><stop offset="0" stop-color="#e8f4ff" stop-opacity="0.16"/><stop offset="0.5" stop-color="#38bdf8" stop-opacity="0.06"/><stop offset="1" stop-color="#0b0d10" stop-opacity="0"/></radialGradient><filter id="grain"><feTurbulence type="fractalNoise" baseFrequency="0.8" numOctaves="2" stitchTiles="stitch"/><feColorMatrix type="saturate" values="0"/><feComponentTransfer><feFuncA type="linear" slope="0.06"/></feComponentTransfer><feComposite operator="over" in2="SourceGraphic"/></filter></defs>
<rect width="1600" height="1000" fill="url(#bg)"/><rect width="1600" height="1000" fill="url(#shine)"/><rect x="300" y="430" width="90" height="16" rx="8" fill="#4b5665" opacity="0.8"/><rect x="430" y="430" width="90" height="16" rx="8" fill="#4b5665" opacity="0.8"/><rect x="560" y="430" width="90" height="16" rx="8" fill="#4b5665" opacity="0.8"/><rect x="690" y="430" width="90" height="16" rx="8" fill="#4b5665" opacity="0.8"/><rect x="820" y="430" width="90" height="16" rx="8" fill="#4b5665" opacity="0.8"/><rect x="950" y="430" width="90" height="16" rx="8" fill="#4b5665" opacity="0.8"/><rect x="1080" y="430" width="90" height="16" rx="8" fill="#4b5665" opacity="0.8"/><rect x="1210" y="430" width="90" height="16" rx="8" fill="#4b5665" opacity="0.8"/><rect x="300" y="470" width="90" height="16" rx="8" fill="#39434f" opacity="0.7"/><rect x="430" y="470" width="90" height="16" rx="8" fill="#39434f" opacity="0.7"/><rect x="560" y="470" width="90" height="16" rx="8" fill="#39434f" opacity="0.7"/><rect x="690" y="470" width="90" height="16" rx="8" fill="#39434f" opacity="0.7"/><rect x="820" y="470" width="90" height="16" rx="8" fill="#39434f" opacity="0.7"/><rect x="950" y="470" width="90" height="16" rx="8" fill="#39434f" opacity="0.7"/><rect x="1080" y="470" width="90" height="16" rx="8" fill="#39434f" opacity="0.7"/><rect x="1210" y="470" width="90" height="16" rx="8" fill="#39434f" opacity="0.7"/><path d="M200 700 Q 800 620 1400 700" stroke="#38bdf8" stroke-width="4" fill="none" stroke-opacity="0.3"/><path d="M200 730 Q 800 650 1400 730" stroke="#7dd3fc" stroke-width="2" fill="none" stroke-opacity="0.2"/><rect width="1600" height="1000" filter="url(#grain)" opacity="0.5"/>
</svg>