<svg xmlns="http://www.w3.org/2000/svg" viewBox="0 0 1600 1000" preserveAspectRatio="xMidYMid slice">
<defs><linearGradient id="bg" x1="0" y1="0" x2="0" y2="1"><stop offset="0" stop-color="#f4f6f9"/><stop offset="1" stop-color="#dde5ee"/></linearGradient><radialGradient id="soft" cx="0.35" cy="0.25" r="0.7"><stop offset="0" stop-color="#ffffff" stop-opacity="0.9"/><stop offset="1" stop-color="#dde5ee" stop-opacity="0"/></radialGradient><filter id="grain"><feTurbulence type="fractalNoise" baseFrequency="0.8" numOctaves="2" stitchTiles="stitch"/><feColorMatrix type="saturate" values="0"/><feComponentTransfer><feFuncA type="linear" slope="0.06"/></feComponentTransfer><feComposite operator="over" in2="SourceGraphic"/></filter></defs>
<rect width="1600" height="1000" fill="url(#bg)"/><rect x="8" y="8" width="194" height="194" rx="4" fill="#ffffff" opacity="0.45"/><rect x="218" y="8" width="194" height="194" rx="4" fill="#ffffff" opacity="0.45"/><rect x="428" y="8" width="194" height="194" rx="4" fill="#ffffff" opacity="0.45"/><rect x="638" y="8" width="194" height="194" rx="4" fill="#ffffff" opacity="0.45"/><rect x="848" y="8" width="194" height="194" rx="4" fill="#ffffff" opacity="0.45"/><rect x="1058" y="8" width="194" height="194" rx="4" fill="#ffffff" opacity="0.45"/><rect x="1268" y="8" width="194" height="194" rx="4" fill="#ffffff" opacity="0.45"/><rect x="1478" y="8" width="194" height="194" rx="4" fill="#ffffff" opacity="0.45"/><rect x="8" y="218" width="194" height="194" rx="4" fill="#ffffff" opacity="0.45"/><rect x="218" y="218" width="194" height="194" rx="4" fill="#ffffff" opacity="0.45"/><rect x="428" y="218" width="194" height="194" rx="4" fill="#ffffff" opacity="0.45"/><rect x="638" y="218" width="194" height="194" rx="4" fill="#ffffff" opacity="0.45"/><rect x="848" y="218" width="194" height="194" rx="4" fill="#ffffff" opacity="0.45"/><rect x="1058" y="218" width="194" height="194" rx="4" fill="#ffffff" opacity="0.45"/><rect x="1268" y="218" width="194" height="194" rx="4" fill="#ffffff" opacity="0.45"/><rect x="1478" y="218" width="194" height="194" rx="4" fill="#ffffff" opacity="0.45"/><rect x="8" y="428" width="194" height="194" rx="4" fill="#ffffff" opacity="0.45"/><rect x="218" y="428" width="194" height="194" rx="4" fill="#ffffff" opacity="0.45"/><rect x="428" y="428" width="194" height="194" rx="4" fill="#ffffff" opacity="0.45"/><rect x="638" y="428" width="194" height="194" rx="4" fill="#ffffff" opacity="0.45"/><rect x="848" y="428" width="194" height="194" rx="4" fill="#ffffff" opacity="0.45"/><rect x="1058" y="428" width="194" height="194" rx="4" fill="#ffffff" opacity="0.45"/><rect x="1268" y="428" width="194" height="194" rx="4" fill="#ffffff" opacity="0.45"/><rect x="1478" y="428" width="194" height="194" rx="4" fill="#ffffff" opacity="0.45"/><rect x="8" y="638" width="194" height="194" rx="4" fill="#ffffff" opacity="0.45"/><rect x="218" y="638" width="194" height="194" rx="4" fill="#ffffff" opacity="0.45"/><rect x="428" y="638" width="194" height="194" rx="4" fill="#ffffff" opacity="0.45"/><rect x="638" y="638" width="194" height="194" rx="4" fill="#ffffff" opacity="0.45"/><rect x="848" y="638" width="194" height="194" rx="4" fill="#ffffff" opacity="0.45"/><rect x="1058" y="638" width="194" height="194" rx="4" fill="#ffffff" opacity="0.45"/><rect x="1268" y="638" width="194" height="194" rx="4" fill="#ffffff" opacity="0.45"/><rect x="1478" y="638" width="194" height="194" rx="4" fill="#ffffff" opacity="0.45"/><rect x="8" y="848" width="194" height="194" rx="4" fill="#ffffff" opacity="0.45"/><rect x="218" y="848" width="194" height="194" rx="4" fill="#ffffff" opacity="0.45"/><rect x="428" y="848" width="194" height="194" rx="4" fill="#ffffff" opacity="0.45"/><rect x="638" y="848" width="194" height="194" rx="4" fill="#ffffff" opacity="0.45"/><rect x="848" y="848" width="194" height="194" rx="4" fill="#ffffff" opacity="0.45"/><rect x="1058" y="848" width="194" height="194" rx="4" fill="#ffffff" opacity="0.45"/><rect x="1268" y="848" width="194" height="194" rx="4" fill="#ffffff" opacity="0.45"/><rect x="1478" y="848" width="194" height="194" rx="4" fill="#ffffff" opacity="0.45"/><rect width="1600" height="1000" fill="url(#soft)"/><rect x="620" y="520" width="360" height="60" rx="30" fill="#c2cedc"/><rect x="700" y="580" width="200" height="240" rx="24" fill="#cfd9e6"/><rect width="1600" height="1000" filter="url(#grain)" opacity="0.5"/>
</svg>